<svg xmlns="http://www.w3.org/2000/svg" viewBox="0 0 64 64" width="50px" height="50px">
  <path fill="white" d="M32,12.625c-10.701,0-19.375,8.674-19.375,19.375c0,4.117,1.294,7.928,3.483,11.066L14.5,49.5 l6.56-1.514c3.114,2.135,6.879,3.389,10.94,3.389c10.701,0,19.375-8.674,19.375-19.375S42.701,12.625,32,12.625z"/>
  <path fill="white" d="M32,57c-1.282,0-2.57-0.099-3.828-0.293l0.381-2.471c1.932,0.298,3.936,0.345,5.906,0.132l0.266,2.485
    C33.821,56.951,32.905,57,32,57z M37.322,56.432l-0.53-2.444c1.929-0.417,3.795-1.091,5.549-2.002l1.152,2.219
    C41.543,55.218,39.467,55.967,37.322,56.432z M25.597,56.17c-2.12-0.562-4.161-1.404-6.066-2.504l1.25-2.166
    c1.713,0.99,3.549,1.747,5.455,2.252L25.597,56.17z M9.76,51.132l1.37-5.157l2.424,0.605l-1.298,5.194l5.421-1.251l0.562,2.437
    l-5.509,1.252C10.897,54.628,9.277,52.949,9.76,51.132z M45.762,52.873l-1.377-2.085c1.648-1.089,3.148-2.391,4.459-3.872l1.873,1.658
    C49.26,50.218,47.593,51.664,45.762,52.873z M52.353,46.519l-2.034-1.453c1.151-1.611,2.084-3.363,2.77-5.208l2.344,0.872
    C54.668,42.782,53.632,44.729,52.353,46.519z M10.488,44.717c-1.122-1.892-1.99-3.921-2.577-6.03l2.407-0.671
    c0.53,1.898,1.31,3.723,2.321,5.427L10.488,44.717z M56.219,38.221l-2.422-0.62c0.465-1.819,0.702-3.704,0.703-5.602l-0.001-0.259
    l2.5-0.032L57,32C56.999,34.107,56.736,36.199,56.219,38.221z M7.341,36.116C7.115,34.764,7,33.379,7,32
    c0-0.811,0.039-1.631,0.117-2.437l2.488,0.239C9.535,30.53,9.5,31.269,9.5,32c0,1.241,0.103,2.488,0.306,3.704L7.341,36.116z
     M54.349,29.374c-0.228-1.965-0.715-3.89-1.447-5.721l2.322-0.928c0.813,2.036,1.354,4.176,1.608,6.361L54.349,29.374z
     M9.955,27.463l-2.449-0.5c0.441-2.152,1.166-4.237,2.155-6.198l2.231,1.125C11.004,23.654,10.352,25.529,9.955,27.463z
     M51.908,21.507c-0.922-1.744-2.073-3.364-3.42-4.816l1.833-1.702c1.495,1.613,2.773,3.412,3.796,5.348L51.908,21.507z
     M13.067,19.838l-2.102-1.355c1.189-1.844,2.616-3.528,4.241-5.001l1.68,1.851C15.423,16.661,14.137,18.176,13.067,19.838z
     M46.789,15.043c-1.49-1.301-3.145-2.401-4.915-3.267l1.099-2.246c1.968,0.962,3.805,2.184,5.461,3.63L46.789,15.043z
     M18.72,13.835l-1.477-2.017c1.775-1.3,3.711-2.36,5.754-3.147l0.901,2.332C22.06,11.712,20.318,12.665,18.72,13.835z
     M39.697,10.85c-1.853-0.675-3.792-1.101-5.762-1.268l0.21-2.49c2.191,0.186,4.347,0.659,6.406,1.41L39.697,10.85z
     M26.147,10.268L25.5,7.853C27.609,7.287,29.797,7,32,7v2.5C30.015,9.5,28.046,9.759,26.147,10.268z"/>
</svg>
